<?xml version="1.0" standalone="no"?>
<!DOCTYPE svg PUBLIC "-//W3C//DTD SVG 20010904//EN"
 "http://www.w3.org/TR/2001/REC-SVG-20010904/DTD/svg10.dtd">
<svg version="1.0" xmlns="http://www.w3.org/2000/svg"
 width="300.000000pt" height="246.000000pt" viewBox="0 0 300.000000 246.000000"
 preserveAspectRatio="xMidYMid meet">
<metadata>
Created by potrace 1.10, written by Peter Selinger 2001-2011
</metadata>
<g transform="translate(0.000000,246.000000) scale(0.050000,-0.050000)"
fill="#000000" stroke="none">
<path d="M947 4211 c-548 -238 -371 -1059 228 -1061 l165 0 0 -630 c0 -788
-32 -893 -280 -932 -187 -30 -78 -48 289 -48 366 0 490 19 316 47 -265 44
-285 111 -285 936 l0 671 48 21 47 22 283 -820 c155 -450 282 -828 282 -838 0
-73 44 23 128 281 54 164 134 392 177 505 115 298 397 1139 390 1161 -8 22
-137 -328 -287 -775 -79 -237 -110 -309 -122 -280 -8 22 -111 314 -227 649
l-212 610 -81 6 c-79 6 -80 7 -112 120 -83 300 -461 479 -747 355z m425 -49
c146 -66 258 -207 301 -376 l11 -46 -244 0 -245 0 13 100 c13 97 12 100 -37
100 -48 0 -51 -6 -51 -103 l0 -103 -100 12 c-96 12 -100 10 -100 -37 0 -45 7
-49 100 -49 l100 0 0 -100 c0 -93 4 -100 49 -100 47 0 49 4 37 100 -12 105 43
143 110 76 33 -33 33 -408 0 -429 -94 -58 -361 5 -486 116 -421 369 32 1070
542 839z m57 -779 c31 -90 32 -110 9 -125 -47 -29 -52 -22 -65 87 -26 213 -9
225 56 38z m283 102 c37 -25 62 -86 228 -560 161 -462 185 -579 130 -625 -37
-31 -43 -16 -219 487 -70 200 -151 426 -179 503 -71 192 -57 260 40 195z"/>
<path d="M4487 4070 c-285 -97 -631 -338 -968 -673 l-223 -221 7 210 c8 229
38 295 149 323 26 6 48 22 48 34 0 11 -14 16 -32 9 -17 -7 -175 -12 -350 -12
l-319 0 -21 -55 c-14 -35 -21 -271 -19 -651 l3 -596 -90 -144 c-454 -729 -528
-1492 -159 -1647 237 -99 771 116 1119 451 48 46 116 88 166 102 68 18 137 72
331 259 318 306 473 356 662 211 328 -250 113 -830 -310 -838 -137 -3 -151 32
-63 152 167 226 -60 503 -297 363 -341 -201 90 -673 493 -539 463 154 510 798
74 1024 l-120 62 74 63 c125 105 187 260 191 473 2 166 9 193 83 350 431 905
228 1514 -429 1290z m396 -18 c238 -100 287 -430 133 -912 -37 -116 -166 -445
-190 -486 -5 -8 -31 29 -59 84 -44 89 -89 137 -285 305 -102 87 -80 165 66
238 224 112 143 449 -108 449 -276 0 -321 -315 -84 -592 50 -58 62 -81 36 -72
-469 180 -962 -146 -962 -636 0 -159 7 -182 126 -415 4 -8 -14 -23 -39 -33
-56 -22 -141 -110 -184 -192 -29 -56 -31 -10 -32 640 l-1 701 185 181 c606
593 1110 860 1398 740z m-1803 -1422 c0 -819 -1 -850 -38 -850 -59 0 -61 39
-62 895 l0 805 50 0 50 0 0 -850z m1181 394 c80 -102 108 -252 108 -594 0
-446 -26 -527 -187 -609 l-117 -59 -41 44 c-149 159 -180 896 -50 1170 58 123
209 148 287 48z m-1537 -1364 c-21 -27 -66 -59 -101 -69 -133 -40 -51 -54 300
-49 l364 5 26 -89 c33 -114 136 -214 265 -257 l100 -34 -234 -167 c-1084 -774
-1493 -147 -784 1200 l90 170 6 -330 c4 -294 1 -334 -32 -380z m961 239 c58
-44 157 -96 220 -115 63 -19 115 -40 115 -46 0 -18 -223 -116 -295 -130 -175
-35 -312 181 -204 319 52 66 39 68 164 -28z"/>
</g>
</svg>
